<svg width="1060" height="1111" viewBox="0 0 1060 1111" fill="none" xmlns="http://www.w3.org/2000/svg">
<path d="M155.608 281.249C199.035 335.012 214.165 352.676 266.824 411.088L294.821 441.991L278.941 441.261L262.82 440.365L245.459 420.79C231.507 405.015 222.34 397.205 200.968 383.387C186 373.674 154.887 352.359 131.618 336.151C108.109 319.776 89.1572 306.575 89.3028 307.389C89.3756 307.796 103.182 322.757 120.085 340.944C154.131 377.485 192.668 408.602 226.6 426.893C237.751 432.879 246.648 438.007 246.314 438.487C246.147 438.727 242.004 439.048 237.142 438.868C230.172 438.644 219.094 433.066 191.63 415.718C151.911 390.902 152.798 391.163 96.811 384.587C82.2455 382.992 72.1783 379.543 59.1085 372.221C36.2544 359.508 42.1656 367.901 69.8259 387.524C94.3675 404.975 117.337 415.986 148.781 425.062C162.563 429.317 173.923 432.955 173.996 433.362C174.069 433.769 160.617 437.225 143.909 441.264C116.191 448.322 0.271566 489.426 0.541294 492.108C0.738218 494.383 97.3641 488.65 123.964 484.732C149.582 481.2 182.03 468.886 209.775 452.583C224.388 443.879 245.333 438.873 250.85 442.716C252.29 443.718 246.956 446.772 238.867 449.689C212.713 459.617 190.208 473.513 166.259 494.597C142.143 515.921 108.116 549.937 102.268 558.334C98.6649 564.018 190.814 507.425 216.588 488.325C226.223 481.141 241.642 468.723 250.819 460.152L267.836 444.928L291.364 448.489C304.541 450.543 314.797 452.698 314.296 453.418C313.794 454.137 292.648 465.06 267.17 477.597C241.692 490.135 213.155 505.529 203.781 511.826C186.589 523.721 86.3878 609.265 87.0644 611.874C87.2828 613.095 158.199 571.64 220.286 533.654C233.918 525.336 264.67 504.715 288.867 487.367C332.481 456.465 340.831 452.662 351.48 459.367C353.159 460.537 339.171 470.389 320.779 481.449C272.826 510.396 261.854 519.499 223.389 560.399C185.259 600.82 164.412 616.939 108.036 649.283C90.3123 659.384 75.5319 668.327 75.0306 669.047C74.5293 669.767 84.8925 666.653 97.9591 662.216C128.59 651.487 159.257 635.082 190.459 612.28C204.04 602.501 228.434 587.427 244.341 578.912C285.413 557.285 331.358 519.457 366.327 478.972L378.867 464.548L394.131 467.698C402.853 469.498 409.78 471.829 410.166 472.81C410.144 473.864 385.497 493.393 354.869 515.882C292.203 562.371 267.658 584.822 231.404 628.687C217.599 645.436 193.333 674.137 177.712 692.471C146.877 729.067 145.3 730.819 147.742 730.382C148.556 730.237 172.15 710.686 199.805 686.84C227.46 662.993 260.972 634.318 274.501 623.078C312.46 591.088 355.286 551.087 392.32 512.753C411.124 493.429 428.402 477.318 431.084 477.049C436.375 476.102 486.098 487.579 486.462 489.614C486.608 490.428 458.268 508.097 423.373 529.039C388.645 549.741 348.541 575.604 334.292 586.343C311.889 603.16 164.629 741.432 165.451 744.855C165.815 746.89 303.305 650.267 369.175 601.734C402.026 577.588 446.278 543.212 467.409 525.152C502.235 495.613 506.922 492.464 513.777 494.388C517.97 495.528 530.48 498.541 541.695 501.365L561.945 506.563L546.183 515.892C537.405 520.822 508.607 537.104 482.199 551.487C400.753 596.296 384.948 607.733 314.853 672.561C287.656 697.796 254.101 728.579 240.216 741.352C226.498 753.886 215.003 764.762 215.148 765.576C215.294 766.39 226.87 759.49 240.931 750.045C254.824 740.839 293.948 715.361 327.476 693.824C423.134 632.193 459.335 606.817 522.952 557.428L582.362 511.521L610.113 518.737C625.355 522.941 638.25 526.935 638.228 527.989C638.614 528.97 598.415 555.48 549.198 586.754C463.081 641.848 459.208 644.851 429.818 674.258C398.015 706.617 382.211 718.054 297.474 769.121C242.704 802.228 235.888 806.387 236.848 807.056C237.328 807.39 247.879 802.982 260.081 797.23C272.355 791.885 292.812 782.975 305.398 778.204C336.625 766.108 367.604 750.277 401.518 729.721C417.206 719.984 434.669 710.771 440.628 708.865C462.263 701.845 494.535 686.203 518.929 671.129C548.178 652.667 574.924 629.613 626.345 577.785C647.205 557.043 665.821 539.013 668.117 537.763C670.246 536.752 682.537 538.544 695.526 541.89C718.916 548.207 718.916 548.207 713.56 552.315C710.836 554.692 668.632 584.081 620.091 617.964C531.237 680.058 521.674 687.648 465.429 745.379C454.581 756.35 424.878 785.183 399.164 809.313C373.689 833.61 352.756 853.944 353.142 854.925C353.287 855.739 357.734 852.424 363.591 847.596C381.756 831.747 450.685 780.357 476.416 763.365C490.31 754.159 516.624 740.423 535.024 732.931C602.645 705.926 631.906 682.842 747.6 565.336C753.645 559.215 755.753 559.258 776.796 565.364C789.21 569.024 799.684 572.4 799.59 573.047C799.736 573.861 789.672 582.171 777.145 591.972C740.232 620.415 697.397 656.847 677.947 676.077C668.174 686.015 640.398 719.753 616.401 751.136C580.896 798.017 569.765 810.928 556.33 821.522C532.758 840.018 493.314 861.354 457.348 875.137C440.023 881.596 426.027 887.879 426.413 888.86C427.577 895.372 504.742 873.59 538.163 857.322C571.177 841.126 588.674 826.237 622.16 786.856C659.803 742.533 678.542 726.371 710.481 711.208C732.754 700.714 749.574 683.215 788.777 630.002L825.64 580.148L859.171 590.321C877.626 596.05 893.326 601.642 894.191 602.957C895.369 604.846 878.249 617.149 759.456 699.718C694.298 745.183 671.119 768.229 592.166 865.722C559.378 906.658 532.489 940.658 532.395 941.305C532.519 943.172 533.093 942.86 573.318 907.104C614.618 870.317 656.96 838.173 719.539 795.899C811.222 734.349 819.396 727.217 884.488 653.203C904.338 630.332 921.994 611.634 923.215 611.416C926.95 611.168 970.839 626.418 971.37 628.213C971.515 629.027 926.921 660.314 872.713 697.73C761.76 773.647 762.334 773.334 711.582 824.203C691.463 844.392 649.93 884.581 619.508 912.913C588.918 941.485 562.869 966.094 562.033 967.294C561.271 968.9 574.612 958.954 591.753 945.597C670.716 883.383 724.642 847.907 763.884 832.488C841.221 802.274 872.83 779.4 969.678 683.326L1012.64 640.571L1039.22 649.467C1053.96 654.39 1065.47 658.842 1065.14 659.322C1064.8 659.802 1047.56 670.236 1026.94 682.954C969.876 717.311 953.403 729.708 912.707 768.698C842.735 835.394 839.989 838.825 764.672 944.908C720.675 1006.54 698.096 1039.98 703.211 1035.7C707.586 1031.98 720.627 1016.84 731.874 1002.23C769.436 953.926 809.618 920.279 881.798 876.498C942.642 839.784 988.026 797.646 1080.5 693.535C1102.74 668.767 1102.33 668.839 1124.03 678.609L1133.59 682.778L1114.16 700.953C1103.5 710.63 1076.33 734.811 1054.03 754.55C993.247 808.052 980.227 822.141 930.874 887.88C906.282 920.629 871.582 963.796 853.498 983.621C821.798 1018.9 763.454 1080.16 751.646 1090.46C748.587 1093.32 746.916 1095.72 748.137 1095.5C751.8 1094.84 834.898 1028.74 849.619 1014.77C866.992 998.008 904.02 967.864 938.594 942.78C1017.71 884.948 1050.11 851.222 1128.01 745.516C1149.19 717.158 1166.86 693.837 1167.67 693.692C1168.66 693.306 1218.34 710.459 1220.02 711.628C1220.26 711.796 1212.04 717.467 1201.68 724.149C1191.09 730.664 1172.49 744.072 1159.72 753.705L1136.82 771.242L1088.69 840.331C1037.9 913.258 1010.36 958.923 962.863 1049.11C923.543 1123.97 923.218 1128.02 959.717 1076.13C988.697 1035.04 1002.24 1019.18 1050.46 969.392C1070.34 949.036 1174.54 814.265 1210.63 762.449C1241.55 718.069 1241.38 718.309 1261.59 725.615C1274.63 730.422 1277.91 732.355 1276.24 734.754C1275.07 736.433 1257.55 752.376 1237 770.123C1200.5 802.062 1199.42 803.094 1176.49 838.067C1149.95 878.725 1147.02 887.018 1144.12 934.159C1142.34 961.778 1143.9 1036.26 1146.71 1061.38L1148.17 1073.08L1149.22 1061.35C1149.76 1054.95 1152.14 1025.97 1154.34 997.22C1159.78 925.477 1162.06 917.089 1183.78 885.903C1197.15 866.712 1206.28 856.679 1222.37 843.302C1240.77 827.619 1246.5 820.924 1272.9 783.021L1302.65 740.32L1313.91 744.605C1320.19 746.842 1329.69 750.604 1335.25 752.34C1340.64 754.315 1345.87 756.53 1346.59 757.031C1347.31 757.533 1340.74 765.428 1332.04 774.333C1307.02 800.018 1274.16 848.738 1262.47 877.29C1249.58 908.575 1248.86 916.264 1255.91 943.982C1263.65 974.309 1265.13 981.395 1265.59 994.543L1266.09 1005.58L1268.07 991.998C1274.47 952.633 1287.92 917.467 1308.31 888.2C1317 875.726 1330.59 849.565 1344.86 817.821C1357.27 789.771 1368.93 766.895 1370.56 766.604C1374.05 766.188 1477.13 805.922 1513.31 821.501C1525.37 826.694 1535.75 830.718 1536.56 830.572C1539 830.136 1523.91 795.036 1520.07 792.362C1517.19 790.357 1349.02 733.076 1334.02 729.039C1330.47 727.993 1335.08 720.869 1363.68 682.363C1389.11 648.414 1402 628.889 1414.4 605.46C1447.8 542.154 1449.02 538.367 1461.94 453.314C1468.33 410.38 1472.87 374.707 1471.91 374.039C1471.19 373.538 1469.86 375.457 1469.31 378.284C1462.86 404.429 1424.52 518.809 1417.68 532.213C1412.86 541.684 1394.77 569.7 1377.23 594.889C1348.65 635.91 1343.86 644.328 1328.45 680.265C1318.92 702.13 1311.25 720.302 1311.08 720.542C1310.41 721.501 1280.86 711.248 1277.5 708.908C1275.82 707.739 1280.7 663.395 1288.43 610.352C1295.99 557.548 1302.64 501.968 1302.94 487.214C1303.34 471.813 1298.9 427.036 1292.33 383.27C1285.82 340.965 1277.1 279.314 1273.07 246.224C1261.87 155.406 1260.78 152.87 1264.99 220.999C1267.51 264.439 1263.15 307.008 1248.99 376.952C1236.65 437.12 1236.23 469.957 1246.53 616.796L1252.5 701.829L1231.72 694.836C1220.12 691.031 1207.15 686.63 1202.31 685.396C1197.64 683.922 1193.61 682.542 1193.13 682.208C1192.41 681.707 1197.28 590.325 1200.71 541.411C1205.93 468.446 1202.78 412.099 1191.94 374.977C1181.46 339.89 1138.15 212.815 1135.99 211.311C1135.03 210.643 1141.35 250.673 1150.23 300.325L1165.99 390.749L1154.54 462.938C1141.51 545.069 1141.85 568.109 1155.8 631.975C1160.39 652.993 1163.36 670.733 1162.14 670.952C1158.88 671.534 1098.38 651.485 1093.66 648.55C1089.58 645.709 1097.13 597.528 1112.65 524.611C1120.64 487.062 1127.39 437.973 1127.96 414.141C1128.32 404.416 1125.17 368.019 1121.43 332.989C1117.44 297.791 1111.94 241.233 1109.23 207.278C1102.52 122.797 1101.16 114.011 1101.63 162.437C1102.31 208.516 1095.83 252.096 1079.22 318.908C1063.15 382.893 1060.68 420.716 1064.55 560.936C1065.56 602.966 1065.25 637.67 1063.86 638.129C1061.16 639.452 1035.3 631.058 1035.34 628.95C1035.28 623.921 1040.65 531.82 1043.02 499.266C1046.98 443.955 1047.61 393.443 1044.53 369.212C1043.14 357.911 1037.45 330.789 1031.65 308.935C1016.72 250.077 999.542 177.547 985.984 114.661C979.23 83.9489 973.569 59.3412 973.067 60.0608C972.399 61.0204 975.058 81.7551 979.091 106.654C987.843 162.629 986.962 205.838 975.358 293.594C968.628 345.199 972.035 388.9 994.854 530.561L1009.46 621.61L985.371 613.738C971.997 609.41 958.55 604.675 955.504 602.91C951.331 600.716 950.296 587.882 951.015 536.722C951.916 460.75 951.625 459.122 940.609 367.011C935.75 326.929 931.675 284.188 931.766 271.781C931.605 243.88 937.069 162.891 943.157 103.001C945.52 78.6384 947.055 59.0435 946.408 58.9493C941.931 59.75 894.925 372.242 894.069 406.206C893.193 441.223 913.642 532.067 934.021 582.602C936.719 589.47 938.458 595.669 937.79 596.629C936.787 598.068 874.11 577.568 869.072 574.059C867.633 573.057 865.853 549.015 865.619 520.706C862.681 338.739 855.68 304.291 797.718 179.836C758.098 94.5219 719.389 20.1744 716.716 24.0126C716.382 24.4924 725.183 50.2185 736.392 81.1841C751.58 123.828 759.649 153.675 769.656 203.756C776.782 240.072 788.572 294.244 796.234 324.164C808.61 373.401 842.358 559.727 839.518 563.806C838.348 565.485 787.875 550.992 787.918 548.885C787.589 541.173 775.008 362.821 772.718 335.93C768.686 291.081 756.656 236.742 743.819 206.067C738.568 193.146 719.876 147.349 702.675 104.015C685.307 60.9211 668.71 19.7892 665.771 12.7547L660.353 0.0736272L661.141 9.17289C661.367 13.9624 666.981 48.8688 673.104 86.6241C679.395 124.14 691.277 197.615 699.541 249.688C715.05 348.135 724.613 392.205 750.549 484.378C759.025 514.152 765.719 539.835 765.363 541.369C765.175 542.663 753.625 540.318 740.084 536.23L715.422 528.671L691.143 438.723C647.925 279.291 643.445 268.332 590.96 181.538C572.759 151.403 546.095 106.822 531.668 82.522C490.577 13.6407 491.224 13.735 513.205 73.2243C521.352 95.2875 543.842 157.626 563.176 211.708C604.062 326.407 622.056 370.649 659.239 448.209C674.256 479.334 688.168 508.976 690.263 513.641L694.379 522.565L657.353 512.808L620.567 503.217L595.127 418.516C557.981 295.379 558.367 296.36 484.781 178.48C458.554 136.34 436.412 100.61 435.714 99.0551C435.256 97.6671 434.296 96.9987 433.795 97.7184C432.458 99.6375 523.796 333.204 539.302 368.231C546.982 385.337 564.094 421.127 577.663 447.68C591.233 474.234 600.84 496.246 598.805 496.61C595.142 497.265 549.133 486.594 546.014 484.422C544.815 483.586 527.905 441.88 508.005 391.679C488.513 341.405 469.101 295.106 464.942 288.29C460.783 281.474 444.373 258.999 428.661 238.079C412.949 217.159 384.381 178.378 365.303 151.55C346.464 124.889 330.053 102.414 328.854 101.579C327.895 100.91 336.024 115.836 347.23 135.042C376.614 185.437 395.508 225.318 421.189 290.236C445.933 353.431 466.673 394.242 498.375 442.332C509.697 459.837 519.36 475.119 519.651 476.747C520.495 479.116 468.861 469.872 464.543 466.864C463.583 466.196 446.407 433.567 426.292 393.905C395.015 332.928 386.311 318.315 367.314 295.462C355.041 280.857 326.868 246.626 304.627 219.734C282.554 192.601 263.535 170.803 262.721 170.949C261.907 171.094 266.546 178.245 272.53 187.044C295.477 219.06 316.877 255.343 353.367 323.157C387.501 387.193 395.601 399.604 441.32 460.308C443.77 463.44 407.044 458.879 401.766 455.202C400.806 454.534 381.775 417.407 359.733 372.839C333.721 320.161 316.596 288.994 310.547 283.356C305.698 278.553 281.946 250.251 258.309 220.248C234.505 190.486 215.434 167.226 215.726 168.854C218.047 178.309 305.545 325.831 340.468 379.015C362.965 413.212 383.419 444.204 385.774 447.983C389.694 454.632 389.287 454.705 368.18 451.76L346.833 448.648L309.443 385.195C283.665 340.875 267.225 315.885 255.244 302.908C245.64 292.656 224.243 268.132 207.361 248.892C190.647 229.411 176.695 213.636 176.048 213.542C173.439 214.219 269.039 354.201 299.837 394.893C319.105 420.427 335.108 442.975 335.806 444.53C336.097 446.158 329.2 446.342 320.551 444.949L304.713 442.112L284.564 408.125C249.581 349.912 235.432 331.862 204.311 306.978C189.314 294.75 162.939 271.748 146.233 255.836C129.286 239.756 114.55 226.642 113.569 227.027C112.755 227.173 131.565 251.319 155.608 281.249Z" fill="#FFF6DA"/>
</svg>
