<svg width="229" height="58" viewBox="0 0 229 58" fill="none" xmlns="http://www.w3.org/2000/svg">
<rect width="229" height="58" fill="white"/>
<path d="M35 16.5195C28.0859 16.5195 22.5195 22.0859 22.5195 29C22.5195 35.9141 28.0859 41.4805 35 41.4805C41.9141 41.4805 47.4805 35.9141 47.4805 29C47.4805 22.0859 41.9141 16.5195 35 16.5195ZM35 39.0195C29.4922 39.0195 24.9805 34.5078 24.9805 29C24.9805 23.4922 29.4922 18.9805 35 18.9805C40.5078 18.9805 45.0195 23.4922 45.0195 29C45.0195 34.5078 40.5078 39.0195 35 39.0195ZM40.7422 23.4922L32.4805 31.6953L29.2578 28.4727L27.5 30.2305L32.4805 35.2695L42.5 25.25L40.7422 23.4922Z" fill="#F9B800"/>
<path d="M68.4941 36.9141C67.4395 37.4609 66.1276 37.7344 64.5586 37.7344C62.5273 37.7344 60.8997 37.0931 59.6758 35.8105C58.4518 34.528 57.8398 32.8451 57.8398 30.7617C57.8398 28.5221 58.5267 26.7122 59.9004 25.332C61.2806 23.9518 63.0221 23.2617 65.125 23.2617C66.4792 23.2617 67.6022 23.4538 68.4941 23.8379V26.1426C67.5501 25.5827 66.5085 25.3027 65.3691 25.3027C63.8522 25.3027 62.6217 25.7878 61.6777 26.7578C60.7402 27.7279 60.2715 29.0234 60.2715 30.6445C60.2715 32.1875 60.7109 33.418 61.5898 34.3359C62.4688 35.2474 63.6243 35.7031 65.0566 35.7031C66.3783 35.7031 67.5241 35.3906 68.4941 34.7656V36.9141ZM79.6172 37.5H77.3516V35.918H77.3125C76.6549 37.1289 75.6328 37.7344 74.2461 37.7344C71.8828 37.7344 70.7012 36.3151 70.7012 33.4766V27.5H72.9668V33.2422C72.9668 35.0391 73.6602 35.9375 75.0469 35.9375C75.7174 35.9375 76.2676 35.6901 76.6973 35.1953C77.1335 34.7005 77.3516 34.0527 77.3516 33.252V27.5H79.6172V37.5ZM88.377 29.6582C88.1035 29.4434 87.7096 29.3359 87.1953 29.3359C86.5247 29.3359 85.9648 29.6387 85.5156 30.2441C85.0664 30.8496 84.8418 31.6732 84.8418 32.7148V37.5H82.5762V27.5H84.8418V29.5605H84.8809C85.1022 28.8574 85.4408 28.3105 85.8965 27.9199C86.3587 27.5228 86.873 27.3242 87.4395 27.3242C87.8496 27.3242 88.1621 27.3861 88.377 27.5098V29.6582ZM89.4902 37.1875V35.0879C90.3366 35.7324 91.2708 36.0547 92.293 36.0547C93.6602 36.0547 94.3438 35.651 94.3438 34.8438C94.3438 34.6159 94.2852 34.4238 94.168 34.2676C94.0508 34.1048 93.8913 33.9616 93.6895 33.8379C93.4941 33.7142 93.2598 33.6035 92.9863 33.5059C92.7194 33.4082 92.4199 33.2975 92.0879 33.1738C91.6777 33.0111 91.3066 32.8385 90.9746 32.6562C90.6491 32.474 90.3757 32.2689 90.1543 32.041C89.9395 31.8066 89.7767 31.543 89.666 31.25C89.5553 30.957 89.5 30.6152 89.5 30.2246C89.5 29.7428 89.6139 29.3197 89.8418 28.9551C90.0697 28.584 90.3757 28.2747 90.7598 28.0273C91.1439 27.7734 91.5801 27.5846 92.0684 27.4609C92.5566 27.3307 93.0612 27.2656 93.582 27.2656C94.5065 27.2656 95.3333 27.4056 96.0625 27.6855V29.668C95.3594 29.1862 94.5521 28.9453 93.6406 28.9453C93.3542 28.9453 93.0938 28.9746 92.8594 29.0332C92.6315 29.0918 92.4362 29.1732 92.2734 29.2773C92.1107 29.3815 91.9837 29.5085 91.8926 29.6582C91.8014 29.8014 91.7559 29.9609 91.7559 30.1367C91.7559 30.3516 91.8014 30.5339 91.8926 30.6836C91.9837 30.8333 92.1172 30.9668 92.293 31.084C92.4753 31.1947 92.6901 31.2988 92.9375 31.3965C93.1914 31.4876 93.4811 31.5885 93.8066 31.6992C94.2363 31.875 94.6204 32.054 94.959 32.2363C95.304 32.4186 95.597 32.627 95.8379 32.8613C96.0788 33.0892 96.2643 33.3561 96.3945 33.6621C96.5247 33.9616 96.5898 34.3197 96.5898 34.7363C96.5898 35.2441 96.4727 35.6868 96.2383 36.0645C96.0039 36.4421 95.6914 36.7546 95.3008 37.002C94.9102 37.2493 94.4577 37.4316 93.9434 37.5488C93.4355 37.6725 92.8984 37.7344 92.332 37.7344C91.2383 37.7344 90.291 37.5521 89.4902 37.1875ZM107.469 37.5H105.203V35.918H105.164C104.507 37.1289 103.484 37.7344 102.098 37.7344C99.7344 37.7344 98.5527 36.3151 98.5527 33.4766V27.5H100.818V33.2422C100.818 35.0391 101.512 35.9375 102.898 35.9375C103.569 35.9375 104.119 35.6901 104.549 35.1953C104.985 34.7005 105.203 34.0527 105.203 33.252V27.5H107.469V37.5ZM109.803 37.1875V35.0879C110.649 35.7324 111.583 36.0547 112.605 36.0547C113.973 36.0547 114.656 35.651 114.656 34.8438C114.656 34.6159 114.598 34.4238 114.48 34.2676C114.363 34.1048 114.204 33.9616 114.002 33.8379C113.807 33.7142 113.572 33.6035 113.299 33.5059C113.032 33.4082 112.732 33.2975 112.4 33.1738C111.99 33.0111 111.619 32.8385 111.287 32.6562C110.962 32.474 110.688 32.2689 110.467 32.041C110.252 31.8066 110.089 31.543 109.979 31.25C109.868 30.957 109.812 30.6152 109.812 30.2246C109.812 29.7428 109.926 29.3197 110.154 28.9551C110.382 28.584 110.688 28.2747 111.072 28.0273C111.456 27.7734 111.893 27.5846 112.381 27.4609C112.869 27.3307 113.374 27.2656 113.895 27.2656C114.819 27.2656 115.646 27.4056 116.375 27.6855V29.668C115.672 29.1862 114.865 28.9453 113.953 28.9453C113.667 28.9453 113.406 28.9746 113.172 29.0332C112.944 29.0918 112.749 29.1732 112.586 29.2773C112.423 29.3815 112.296 29.5085 112.205 29.6582C112.114 29.8014 112.068 29.9609 112.068 30.1367C112.068 30.3516 112.114 30.5339 112.205 30.6836C112.296 30.8333 112.43 30.9668 112.605 31.084C112.788 31.1947 113.003 31.2988 113.25 31.3965C113.504 31.4876 113.794 31.5885 114.119 31.6992C114.549 31.875 114.933 32.054 115.271 32.2363C115.617 32.4186 115.91 32.627 116.15 32.8613C116.391 33.0892 116.577 33.3561 116.707 33.6621C116.837 33.9616 116.902 34.3197 116.902 34.7363C116.902 35.2441 116.785 35.6868 116.551 36.0645C116.316 36.4421 116.004 36.7546 115.613 37.002C115.223 37.2493 114.77 37.4316 114.256 37.5488C113.748 37.6725 113.211 37.7344 112.645 37.7344C111.551 37.7344 110.604 37.5521 109.803 37.1875ZM127.205 37.5H124.812V23.4961H127.205V37.5ZM139.314 37.5H137.049V31.8652C137.049 29.9967 136.388 29.0625 135.066 29.0625C134.376 29.0625 133.807 29.3229 133.357 29.8438C132.908 30.3581 132.684 31.0091 132.684 31.7969V37.5H130.408V27.5H132.684V29.1602H132.723C133.471 27.8971 134.552 27.2656 135.965 27.2656C137.052 27.2656 137.882 27.6204 138.455 28.3301C139.028 29.0332 139.314 30.0521 139.314 31.3867V37.5ZM147.361 37.3926C146.919 37.6139 146.336 37.7246 145.613 37.7246C143.673 37.7246 142.703 36.7936 142.703 34.9316V29.2773H141.033V27.5H142.703V25.1855L144.969 24.541V27.5H147.361V29.2773H144.969V34.2773C144.969 34.8698 145.076 35.293 145.291 35.5469C145.506 35.8008 145.864 35.9277 146.365 35.9277C146.749 35.9277 147.081 35.8171 147.361 35.5957V37.3926ZM157.664 33.1152H150.848C150.874 34.0397 151.157 34.7526 151.697 35.2539C152.244 35.7552 152.993 36.0059 153.943 36.0059C155.011 36.0059 155.991 35.6868 156.883 35.0488V36.875C155.971 37.4479 154.767 37.7344 153.27 37.7344C151.798 37.7344 150.643 37.2819 149.803 36.377C148.969 35.4655 148.553 34.1862 148.553 32.5391C148.553 30.9831 149.012 29.7168 149.93 28.7402C150.854 27.7572 152 27.2656 153.367 27.2656C154.734 27.2656 155.792 27.7051 156.541 28.584C157.29 29.4629 157.664 30.6836 157.664 32.2461V33.1152ZM155.477 31.5137C155.47 30.6999 155.278 30.0684 154.9 29.6191C154.523 29.1634 154.002 28.9355 153.338 28.9355C152.687 28.9355 152.133 29.1732 151.678 29.6484C151.229 30.1237 150.952 30.7454 150.848 31.5137H155.477ZM168.924 36.6992C168.924 40.3711 167.078 42.207 163.387 42.207C162.085 42.207 160.949 41.9889 159.979 41.5527V39.4824C161.072 40.1074 162.111 40.4199 163.094 40.4199C165.47 40.4199 166.658 39.2513 166.658 36.9141V35.8203H166.619C165.87 37.0964 164.744 37.7344 163.24 37.7344C162.023 37.7344 161.04 37.2917 160.291 36.4062C159.549 35.5143 159.178 34.3197 159.178 32.8223C159.178 31.123 159.578 29.7721 160.379 28.7695C161.18 27.7669 162.28 27.2656 163.68 27.2656C165.001 27.2656 165.981 27.806 166.619 28.8867H166.658V27.5H168.924V36.6992ZM166.678 32.9199V31.6211C166.678 30.918 166.443 30.319 165.975 29.8242C165.512 29.3229 164.933 29.0723 164.236 29.0723C163.377 29.0723 162.703 29.3913 162.215 30.0293C161.733 30.6608 161.492 31.5462 161.492 32.6855C161.492 33.6686 161.723 34.4564 162.186 35.0488C162.654 35.6348 163.273 35.9277 164.041 35.9277C164.822 35.9277 165.457 35.6478 165.945 35.0879C166.434 34.5215 166.678 33.7988 166.678 32.9199ZM180.34 33.1152H173.523C173.549 34.0397 173.833 34.7526 174.373 35.2539C174.92 35.7552 175.669 36.0059 176.619 36.0059C177.687 36.0059 178.667 35.6868 179.559 35.0488V36.875C178.647 37.4479 177.443 37.7344 175.945 37.7344C174.474 37.7344 173.318 37.2819 172.479 36.377C171.645 35.4655 171.229 34.1862 171.229 32.5391C171.229 30.9831 171.688 29.7168 172.605 28.7402C173.53 27.7572 174.676 27.2656 176.043 27.2656C177.41 27.2656 178.468 27.7051 179.217 28.584C179.965 29.4629 180.34 30.6836 180.34 32.2461V33.1152ZM178.152 31.5137C178.146 30.6999 177.954 30.0684 177.576 29.6191C177.199 29.1634 176.678 28.9355 176.014 28.9355C175.363 28.9355 174.809 29.1732 174.354 29.6484C173.904 30.1237 173.628 30.7454 173.523 31.5137H178.152ZM188.299 29.6582C188.025 29.4434 187.632 29.3359 187.117 29.3359C186.447 29.3359 185.887 29.6387 185.438 30.2441C184.988 30.8496 184.764 31.6732 184.764 32.7148V37.5H182.498V27.5H184.764V29.5605H184.803C185.024 28.8574 185.363 28.3105 185.818 27.9199C186.281 27.5228 186.795 27.3242 187.361 27.3242C187.771 27.3242 188.084 27.3861 188.299 27.5098V29.6582Z" fill="#262626"/>
</svg>
